<?xml version="1.0" encoding="utf-8"?>
<!-- Generator: Adobe Illustrator 27.5.0, SVG Export Plug-In . SVG Version: 6.00 Build 0)  -->
<svg version="1.1" xmlns="http://www.w3.org/2000/svg" xmlns:xlink="http://www.w3.org/1999/xlink" x="0px" y="0px"
	 viewBox="0 0 500 500" style="enable-background:new 0 0 500 500;" xml:space="preserve">
<g id="BACKGROUND">
</g>
<g id="OBJECTS">
	<g>
		<g>
			<polygon style="fill:#FFAF99;" points="134.232,317.276 97.775,423.002 0,497.154 0,500 231.947,500 243.429,468.975 
				300.263,433.078 334.486,335.979 			"/>
			<polygon style="fill:#F29A86;" points="231.947,500 243.429,468.975 300.263,433.078 252.312,433.078 233.639,464.321 
				191.423,500 			"/>
		</g>
		<path style="fill:#FFAF99;" d="M374.358,237.593l-113.113,65.305l-18.495-32.034l113.113-65.306
			c8.846-5.107,20.157-2.076,25.264,6.77v0C386.235,221.174,383.204,232.485,374.358,237.593z"/>
		<g>
			<path style="fill:#F29A86;" d="M381.128,212.328L381.128,212.328c-0.276-0.478-0.574-0.936-0.885-1.38
				c1.075,7.284-2.283,14.817-9.048,18.723l-113.113,65.305l-14.274-24.723l-1.058,0.611l18.495,32.034l113.113-65.306
				C383.204,232.485,386.235,221.174,381.128,212.328z"/>
		</g>
		<g>
			<g>
				<path style="fill:#383838;" d="M299.01,433.078H195.666c-14.402,0-26.078-11.675-26.078-26.078V141.597
					c0-14.402,11.675-26.078,26.078-26.078H299.01c14.402,0,26.078,11.675,26.078,26.078V407
					C325.088,421.402,313.413,433.078,299.01,433.078z"/>
				<rect x="169.483" y="139.356" style="fill:#C6DADD;" width="155.71" height="256.229"/>
				<path style="fill:#666666;" d="M281.213,129.877h-67.75c-1.275,0-2.309-1.034-2.309-2.309l0,0c0-1.275,1.034-2.309,2.309-2.309
					h67.75c1.275,0,2.309,1.034,2.309,2.309l0,0C283.522,128.843,282.488,129.877,281.213,129.877z"/>
				<g>
					<g>
						<path style="fill:none;stroke:#FFFBE1;stroke-width:0.9519;stroke-miterlimit:10;" d="M299.788,416.44
							c0,0.523-0.428,0.952-0.952,0.952h-6.98c-0.524,0-0.952-0.428-0.952-0.952v-6.979c0-0.524,0.428-0.952,0.952-0.952h6.98
							c0.523,0,0.952,0.428,0.952,0.952V416.44z"/>
					</g>
					<g>
						<path style="fill:none;stroke:#FFFBE1;stroke-width:0.9519;stroke-miterlimit:10;" d="M202.997,416.997
							c0,0.523-0.365,0.727-0.81,0.452l-6.487-3.999c-0.446-0.275-0.446-0.724,0-0.999l6.487-3.999
							c0.446-0.275,0.81-0.071,0.81,0.452V416.997z"/>
					</g>
					<path style="fill:none;stroke:#FFFBE1;stroke-width:0.9519;stroke-miterlimit:10;" d="M252.312,412.951
						c0,2.453-1.988,4.442-4.441,4.442c-2.453,0-4.441-1.989-4.441-4.442c0-2.452,1.989-4.441,4.441-4.441
						C250.324,408.51,252.312,410.499,252.312,412.951z"/>
				</g>
			</g>
		</g>
		<g>
			<defs>
				<rect id="SVGID_1_" x="169.483" y="139.356" width="155.71" height="256.229"/>
			</defs>
			<clipPath id="SVGID_00000009580127754844175910000005217750898973643904_">
				<use xlink:href="#SVGID_1_"  style="overflow:visible;"/>
			</clipPath>
		</g>
		<g>
			<path style="fill:#FFFFFF;" d="M300.194,189.099h-95.051c-1.954,0-3.538-1.584-3.538-3.538l0,0c0-1.954,1.584-3.538,3.538-3.538
				h95.051c1.954,0,3.538,1.584,3.538,3.538l0,0C303.732,187.515,302.148,189.099,300.194,189.099z"/>
			<path style="fill:#FFFFFF;" d="M300.194,202.706h-95.051c-1.954,0-3.538-1.584-3.538-3.538l0,0c0-1.954,1.584-3.538,3.538-3.538
				h95.051c1.954,0,3.538,1.584,3.538,3.538l0,0C303.732,201.122,302.148,202.706,300.194,202.706z"/>
			<path style="fill:#FFFFFF;" d="M300.194,216.313h-95.051c-1.954,0-3.538-1.584-3.538-3.538l0,0c0-1.954,1.584-3.538,3.538-3.538
				h95.051c1.954,0,3.538,1.584,3.538,3.538l0,0C303.732,214.729,302.148,216.313,300.194,216.313z"/>
			<path style="fill:#FFFFFF;" d="M300.194,229.92h-95.051c-1.954,0-3.538-1.584-3.538-3.538l0,0c0-1.954,1.584-3.538,3.538-3.538
				h95.051c1.954,0,3.538,1.584,3.538,3.538l0,0C303.732,228.336,302.148,229.92,300.194,229.92z"/>
			<path style="fill:#FFFFFF;" d="M300.194,243.527h-95.051c-1.954,0-3.538-1.584-3.538-3.538l0,0c0-1.954,1.584-3.538,3.538-3.538
				h95.051c1.954,0,3.538,1.584,3.538,3.538l0,0C303.732,241.943,302.148,243.527,300.194,243.527z"/>
			<path style="fill:#FFFFFF;" d="M193.314,189.099L193.314,189.099c1.862,0,3.371-1.509,3.371-3.371v-0.334
				c0-1.862-1.509-3.371-3.371-3.371h0c-1.862,0-3.371,1.509-3.371,3.371v0.334C189.943,187.59,191.452,189.099,193.314,189.099z"/>
			<path style="fill:#FFFFFF;" d="M193.314,202.706L193.314,202.706c1.862,0,3.371-1.509,3.371-3.371v-0.334
				c0-1.862-1.509-3.371-3.371-3.371h0c-1.862,0-3.371,1.509-3.371,3.371v0.334C189.943,201.197,191.452,202.706,193.314,202.706z"
				/>
			<path style="fill:#FFFFFF;" d="M193.314,216.313L193.314,216.313c1.862,0,3.371-1.509,3.371-3.371v-0.334
				c0-1.862-1.509-3.371-3.371-3.371h0c-1.862,0-3.371,1.509-3.371,3.371v0.334C189.943,214.804,191.452,216.313,193.314,216.313z"
				/>
			<path style="fill:#FFFFFF;" d="M193.314,229.92L193.314,229.92c1.862,0,3.371-1.509,3.371-3.371v-0.334
				c0-1.862-1.509-3.371-3.371-3.371h0c-1.862,0-3.371,1.509-3.371,3.371v0.334C189.943,228.411,191.452,229.92,193.314,229.92z"/>
			<path style="fill:#FFFFFF;" d="M193.314,243.527L193.314,243.527c1.862,0,3.371-1.509,3.371-3.371v-0.334
				c0-1.862-1.509-3.371-3.371-3.371h0c-1.862,0-3.371,1.509-3.371,3.371v0.334C189.943,242.018,191.452,243.527,193.314,243.527z"
				/>
			<path style="fill:#FFFFFF;" d="M290.291,372.51h-51.155c-7.423,0-13.441-6.018-13.441-13.441v-86.908
				c0-7.423,6.018-13.441,13.441-13.441h51.155c7.423,0,13.441,6.018,13.441,13.441v86.908
				C303.732,366.493,297.714,372.51,290.291,372.51z"/>
			<g>
				<path style="fill:#FF7A64;" d="M270.758,333.336h-10.181c-1.36,0-2.47-1.09-2.494-2.45l-0.989-55.886
					c-0.025-1.395,1.099-2.539,2.494-2.539h12.16c1.395,0,2.519,1.144,2.494,2.539l-0.989,55.886
					C273.228,332.245,272.119,333.336,270.758,333.336z"/>
				<path style="fill:#FF7A64;" d="M261.644,356.004h8.047c2.538,0,4.596-2.058,4.596-4.596v-8.901c0-2.538-2.058-4.596-4.596-4.596
					h-8.047c-2.538,0-4.596,2.058-4.596,4.596v8.901C257.048,353.946,259.106,356.004,261.644,356.004z"/>
			</g>
		</g>
		<g>
			<path style="opacity:0.5;fill:#A3C1C4;" d="M423.979,65.626H270.021c-2.468,0-4.468,2-4.468,4.468v81.447
				c0,2.468,2,4.468,4.468,4.468h4.466l8.632,15.66l8.632-15.66h132.227c2.468,0,4.468-2,4.468-4.468V70.094
				C428.447,67.626,426.446,65.626,423.979,65.626z"/>
			<g>
				<path style="fill:#FFA85A;" d="M424.093,55.552H270.136c-2.468,0-4.468,2-4.468,4.468v81.447c0,2.468,2,4.468,4.468,4.468h4.466
					l8.632,15.66l8.632-15.66h132.227c2.468,0,4.468-2,4.468-4.468V60.02C428.561,57.552,426.561,55.552,424.093,55.552z"/>
				
					<ellipse transform="matrix(0.1602 -0.9871 0.9871 0.1602 162.5444 358.2945)" style="fill:#FFFFFF;" cx="291.835" cy="83.623" rx="15.843" ry="15.843"/>
				<g>
					<path style="fill:#383838;" d="M296.538,79.973c0,2.598-2.106,4.703-4.703,4.703c-2.598,0-4.703-2.106-4.703-4.703
						c0-2.597,2.106-4.703,4.703-4.703C294.432,75.27,296.538,77.376,296.538,79.973z"/>
					<path style="fill:#383838;" d="M291.835,82.994c-4.96,0-8.982,4.021-8.982,8.982h17.964
						C300.817,87.016,296.795,82.994,291.835,82.994z"/>
				</g>
				<rect x="317.242" y="95.911" style="opacity:0.5;fill:#FFFFFF;" width="61.958" height="11.069"/>
				<rect x="275.991" y="114.975" style="opacity:0.5;fill:#FFFFFF;" width="45.506" height="6.363"/>
				<rect x="328.757" y="114.975" style="opacity:0.5;fill:#FFFFFF;" width="87.293" height="6.363"/>
				<rect x="275.991" y="126.549" style="opacity:0.5;fill:#FFFFFF;" width="68.825" height="6.363"/>
				<rect x="384.817" y="95.911" style="opacity:0.5;fill:#FFFFFF;" width="31.234" height="11.069"/>
				<g>
					<path style="fill:#FF7A64;" d="M327.699,72.241l1.355,4.171c0.113,0.348,0.437,0.583,0.803,0.583h4.385
						c0.818,0,1.158,1.046,0.496,1.527l-3.548,2.578c-0.296,0.215-0.42,0.596-0.307,0.944l1.355,4.171
						c0.253,0.778-0.637,1.424-1.299,0.944l-3.548-2.578c-0.296-0.215-0.696-0.215-0.992,0l-3.548,2.578
						c-0.661,0.481-1.552-0.166-1.299-0.944l1.355-4.171c0.113-0.348-0.011-0.729-0.307-0.944l-3.548-2.578
						c-0.662-0.481-0.322-1.527,0.496-1.527h4.385c0.366,0,0.69-0.236,0.803-0.583l1.355-4.171
						C326.346,71.463,327.447,71.463,327.699,72.241z"/>
					<path style="fill:#FFFFFF;" d="M347.94,72.241l1.355,4.171c0.113,0.348,0.437,0.583,0.803,0.583h4.385
						c0.818,0,1.158,1.046,0.496,1.527l-3.548,2.578c-0.296,0.215-0.42,0.596-0.307,0.944l1.355,4.171
						c0.253,0.778-0.637,1.424-1.299,0.944l-3.548-2.578c-0.296-0.215-0.696-0.215-0.992,0l-3.548,2.578
						c-0.661,0.481-1.552-0.166-1.299-0.944l1.355-4.171c0.113-0.348-0.011-0.729-0.307-0.944l-3.548-2.578
						c-0.662-0.481-0.322-1.527,0.496-1.527h4.385c0.366,0,0.69-0.236,0.803-0.583l1.355-4.171
						C346.587,71.463,347.687,71.463,347.94,72.241z"/>
					<path style="fill:#FFFFFF;" d="M368.181,72.241l1.355,4.171c0.113,0.348,0.437,0.583,0.803,0.583h4.385
						c0.818,0,1.158,1.046,0.496,1.527l-3.548,2.578c-0.296,0.215-0.42,0.596-0.307,0.944l1.355,4.171
						c0.253,0.778-0.637,1.424-1.299,0.944l-3.548-2.578c-0.296-0.215-0.696-0.215-0.992,0l-3.548,2.578
						c-0.661,0.481-1.552-0.166-1.299-0.944l1.355-4.171c0.113-0.348-0.011-0.729-0.307-0.944l-3.548-2.578
						c-0.662-0.481-0.322-1.527,0.496-1.527h4.385c0.366,0,0.69-0.236,0.803-0.583l1.355-4.171
						C366.828,71.463,367.928,71.463,368.181,72.241z"/>
					<path style="fill:#FFFFFF;" d="M388.421,72.241l1.355,4.171c0.113,0.348,0.437,0.583,0.803,0.583h4.385
						c0.818,0,1.158,1.046,0.496,1.527l-3.548,2.578c-0.296,0.215-0.42,0.596-0.307,0.944l1.355,4.171
						c0.253,0.778-0.637,1.424-1.299,0.944l-3.548-2.578c-0.296-0.215-0.696-0.215-0.992,0l-3.548,2.578
						c-0.661,0.481-1.552-0.166-1.299-0.944l1.355-4.171c0.113-0.348-0.011-0.729-0.307-0.944l-3.548-2.578
						c-0.662-0.481-0.322-1.527,0.496-1.527h4.385c0.366,0,0.69-0.236,0.803-0.583l1.355-4.171
						C387.068,71.463,388.168,71.463,388.421,72.241z"/>
					<path style="fill:#FFFFFF;" d="M408.662,72.241l1.355,4.171c0.113,0.348,0.437,0.583,0.803,0.583h4.385
						c0.818,0,1.158,1.046,0.496,1.527l-3.548,2.578c-0.296,0.215-0.42,0.596-0.307,0.944l1.355,4.171
						c0.253,0.778-0.637,1.424-1.299,0.944l-3.548-2.578c-0.296-0.215-0.696-0.215-0.992,0l-3.548,2.578
						c-0.661,0.481-1.552-0.166-1.299-0.944l1.355-4.171c0.113-0.348-0.011-0.729-0.307-0.944l-3.548-2.578
						c-0.662-0.481-0.322-1.527,0.496-1.527h4.385c0.366,0,0.69-0.236,0.803-0.583l1.355-4.171
						C407.309,71.463,408.409,71.463,408.662,72.241z"/>
				</g>
				<g style="opacity:0.1;">
					<path style="fill:#FFFFFF;" d="M270.136,55.552c-2.468,0-4.468,2-4.468,4.468v81.447c0,2.468,2,4.468,4.468,4.468h4.149
						l89.916-90.383H270.136z"/>
				</g>
			</g>
		</g>
		<g>
			<path style="opacity:0.5;fill:#A3C1C4;" d="M216.816,156.687c0-42.444-34.408-76.852-76.853-76.852
				c-42.444,0-76.852,34.408-76.852,76.852s34.408,76.852,76.852,76.852c8.38,0,16.439-1.36,23.989-3.839l24.18,11.188
				l-1.255-23.348C205.08,203.485,216.816,181.463,216.816,156.687z"/>
			<g>
				<path style="fill:#FF7A64;" d="M220.901,141.914c0-42.444-34.408-76.852-76.852-76.852c-42.444,0-76.852,34.408-76.852,76.852
					c0,42.445,34.408,76.852,76.852,76.852c8.38,0,16.438-1.36,23.989-3.839l24.18,11.188l-1.255-23.348
					C209.165,188.713,220.901,166.69,220.901,141.914z"/>
				<g>
					<path style="fill:#FFFFFF;" d="M102.754,151.598c0,3.493,2.831,6.324,6.324,6.324h14.62h6.533
						c0.16,0.698,0.231,1.438,0.094,2.208c-0.363,2.015-1.685,6.016-3.815,9.737c-1.564,2.733-2.195,15.719,0.681,17.702
						c2.877,1.98,6.814,1.257,8.796-1.62l3.579-13.064l7.106-10.317c1.284-1.863,7.944-9.564,7.944-9.564v-34.531l-11.075-3.212
						h-19.843h-4.65c-3.493,0-6.324,2.83-6.324,6.324c0,0.815,0.169,1.589,0.449,2.304c-2.769,0.672-4.832,3.151-4.832,6.127
						c0,1.843,0.8,3.485,2.057,4.641c-2.906,0.571-5.1,3.126-5.1,6.2c0,1.861,0.817,3.517,2.096,4.674
						C104.725,146.272,102.754,148.693,102.754,151.598z"/>
					<rect x="156.76" y="115.261" style="fill:#FFFFFF;" width="23.053" height="40.756"/>
				</g>
				<g>
					<path style="opacity:0.1;fill:#FFFFFF;" d="M144.049,65.062c-42.444,0-76.852,34.408-76.852,76.852
						c0,24.596,11.568,46.477,29.545,60.543l107.85-107.85C190.525,76.63,168.645,65.062,144.049,65.062z"/>
				</g>
			</g>
		</g>
		<g>
			<path style="fill:#FFAF99;" d="M216.067,320.834l-63.598-31.595c-10.034-4.985-22.168-2.565-29.524,5.886l-13.347,15.338
				c-7.259,8.342-11.258,19.027-11.258,30.086v80.004l31.396-43.663l6.546-20.471l4.682,4.074l16.018-18.407l38.513,19.122
				c11.057,5.49,24.707,1.461,30.498-9.441C232.001,340.456,227.463,326.492,216.067,320.834z"/>
			<path style="fill:#FFC9BD;" d="M213.999,335.283l-26.674-13.639l6.227-12.179l31.313,16.011c2.082,1.065,2.907,3.616,1.843,5.698
				l0,0C224.333,335.818,218.643,337.657,213.999,335.283z"/>
			<g>
				<path style="fill:#F29A86;" d="M199.099,352.463l-49.888-24.842l10.681,69.478l0.09-53.523l35.512,17.632
					c11.057,5.49,24.707,1.461,30.498-9.441c1.13-2.128,1.887-4.35,2.295-6.594C221.934,354.431,209.394,357.574,199.099,352.463z"
					/>
			</g>
			<path style="opacity:0.5;fill:#A3C1C4;" d="M196.946,359.477l-36.963-18.406v10.587l33.359,16.563
				c11.057,5.49,24.707,1.461,30.498-9.441c1.131-2.128,1.887-4.35,2.295-6.593C219.781,361.444,207.241,364.588,196.946,359.477z"
				/>
		</g>
		<g>
			<path style="fill:#FFAF99;" d="M356.536,298.691l-22.027,12.717c-10.557,6.095-24.057,2.478-30.152-8.079h0
				c-6.095-10.557-2.478-24.056,8.079-30.152l22.027-12.717c10.557-6.095,24.057-2.478,30.152,8.079l0,0
				C370.71,279.096,367.093,292.595,356.536,298.691z"/>
			<path style="fill:#FFC9BD;" d="M328.911,305.198c-7.099,4.17-16.234,1.796-20.404-5.303c-4.17-7.099-1.796-16.234,5.303-20.404
				C320.909,275.321,336.01,301.028,328.911,305.198z"/>
			<g>
				<path style="fill:#F29A86;" d="M364.615,268.539L364.615,268.539c-0.68-1.178-1.457-2.265-2.308-3.267
					c3.52,9.848-0.375,21.105-9.754,26.52l-22.027,12.717c-9.379,5.415-21.075,3.159-27.844-4.813
					c0.442,1.237,0.995,2.453,1.675,3.632l0,0c6.095,10.557,19.595,14.174,30.152,8.079l22.027-12.717
					C367.093,292.595,370.711,279.096,364.615,268.539z"/>
			</g>
			<g>
				<path style="opacity:0.5;fill:#A3C1C4;" d="M325.194,360.378v-6.436c-7.51,1.192-15.018-1.394-19.496-7.122
					c0.406,1.384,0.972,2.737,1.72,4.031h0C311.052,357.147,317.92,360.512,325.194,360.378z"/>
				<path style="opacity:0.5;fill:#A3C1C4;" d="M325.194,317.523v-7.453c-7.947,1.835-16.404-0.875-21.768-7.192
					c0.442,1.237,0.995,2.454,1.675,3.632l0,0C309.36,313.887,317.234,317.869,325.194,317.523z"/>
				<path style="opacity:0.5;fill:#A3C1C4;" d="M325.194,383.476c-4.181,0.114-8.286-1.498-11.232-4.553
					c0.182,0.391,0.374,0.78,0.593,1.161v0c2.338,4.05,6.313,6.573,10.639,7.245V383.476z"/>
			</g>
			<path style="fill:#FFAF99;" d="M315.755,319.255l20.167-11.643c10.557-6.095,23.608-3.255,29.15,6.344l0,0
				c5.542,9.599,1.476,22.321-9.081,28.416l-20.167,11.643c-10.557,6.095-23.608,3.255-29.15-6.344v0
				C301.132,338.072,305.198,325.35,315.755,319.255"/>
			<path style="fill:#FFC9BD;" d="M330.757,347.863c-7.099,4.17-16.027,2.147-19.943-4.518c-3.915-6.665-1.335-15.449,5.764-19.619
				C323.676,319.556,337.855,343.693,330.757,347.863z"/>
			<g>
				<path style="fill:#F29A86;" d="M365.072,313.955L365.072,313.955c-0.437-0.756-0.935-1.455-1.46-2.126
					c2.601,8.88-1.668,19.112-10.801,24.385l-20.167,11.643c-9.725,5.615-21.552,3.631-27.69-4.218
					c0.406,1.384,0.972,2.737,1.72,4.031h0c5.542,9.599,18.592,12.439,29.15,6.344l20.167-11.644
					C366.548,336.276,370.613,323.554,365.072,313.955z"/>
			</g>
			<path style="fill:#FFAF99;" d="M319.105,357.813l13.884-8.016c7.268-4.196,16.511-1.795,20.643,5.363l0,0
				c4.133,7.158,1.591,16.363-5.677,20.559l-13.884,8.016c-7.268,4.196-16.511,1.795-20.643-5.363l0,0
				C309.296,371.214,311.837,362.009,319.105,357.813"/>
			<path style="fill:#FFC9BD;" d="M332.248,380.063c-5.611,3.296-12.669,1.697-15.764-3.571c-3.095-5.269-1.055-12.212,4.556-15.508
				C326.651,357.687,337.859,376.766,332.248,380.063z"/>
			<g>
				<path style="fill:#F29A86;" d="M353.633,355.159L353.633,355.159c-0.616-1.066-1.355-2.013-2.174-2.862
					c3.246,6.965,0.611,15.425-6.271,19.398l-13.884,8.016c-6.186,3.571-13.79,2.35-18.469-2.501
					c0.182,0.391,0.373,0.78,0.593,1.161v0c4.133,7.158,13.375,9.559,20.643,5.363l13.884-8.016
					C355.224,371.522,357.766,362.318,353.633,355.159z"/>
			</g>
		</g>
	</g>
</g>
</svg>
